HIERARCHY
ROOT Hips
{
     OFFSET 1.88212 96.90440 -13.34250
     CHANNELS 6 Xposition Yposition Zposition Zrotation Xrotation Yrotation
     JOINT Spine
     {
          OFFSET 0.00000 11.89050 0.00000
          CHANNELS 3 Zrotation Xrotation Yrotation
          JOINT Spine1
          {
               OFFSET -0.00000 25.65740 0.12766
               CHANNELS 3 Zrotation Xrotation Yrotation
               JOINT HEad
               {
                    OFFSET 0.00000 8.73416 0.01134
                    CHANNELS 3 Zrotation Xrotation Yrotation
                    End Site
                    {
                         OFFSET -0.29000 12.77420 2.51395
                    }
               }
               JOINT LeftShoulder1
               {
                    OFFSET 8.99000 -0.36225 -0.22000
                    CHANNELS 3 Zrotation Xrotation Yrotation
                    JOINT LeftArm
                    {
                         OFFSET 10.28270 -0.00338 0.32212
                         CHANNELS 3 Zrotation Xrotation Yrotation
                         JOINT LeftForeArm
                         {
                              OFFSET 32.76690 0.09914 -1.42434
                              CHANNELS 3 Zrotation Xrotation Yrotation
                              JOINT LeftHand
                              {
                                   OFFSET 27.56430 0.08536 1.02216
                                   CHANNELS 3 Zrotation Xrotation Yrotation
                                   End Site
                                   {
                                        OFFSET 16.74430 -0.60000 1.50291
                                   }
                              }
                         }
                    }
               }
               JOINT RightShoulder
               {
                    OFFSET -8.99000 -0.36225 -0.22000
                    CHANNELS 3 Zrotation Xrotation Yrotation
                    JOINT RightArm
                    {
                         OFFSET -10.28270 -0.00338 0.32212
                         CHANNELS 3 Zrotation Xrotation Yrotation
                         JOINT RightForeArm
                         {
                              OFFSET -32.89710 0.09914 -1.42434
                              CHANNELS 3 Zrotation Xrotation Yrotation
                              JOINT RightHand
                              {
                                   OFFSET -27.49210 0.08536 1.02216
                                   CHANNELS 3 Zrotation Xrotation Yrotation
                                   End Site
                                   {
                                        OFFSET -16.63120 -0.60000 1.50291
                                   }
                              }
                         }
                    }
               }
          }
     }
     JOINT LeftUpLeg
     {
          OFFSET 8.94580 -8.66707 0.10165
          CHANNELS 3 Zrotation Xrotation Yrotation
          JOINT LeftLeg
          {
               OFFSET 0.00000 -44.42270 1.37270
               CHANNELS 3 Zrotation Xrotation Yrotation
               JOINT LeftFoot
               {
                    OFFSET -0.25355 -42.09240 -1.46059
                    CHANNELS 3 Zrotation Xrotation Yrotation
                    JOINT LeftToes
                    {
                         OFFSET -0.04000 -4.41509 8.49910
                         CHANNELS 3 Zrotation Xrotation Yrotation
                         End Site
                         {
                              OFFSET 0.08000 -0.04745 9.77979
                         }
                    }
               }
          }
     }
     JOINT RightUpLeg
     {
          OFFSET -8.94580 -8.66707 0.10165
          CHANNELS 3 Zrotation Xrotation Yrotation
          JOINT RightLeg
          {
               OFFSET 0.00000 -44.42270 1.37270
               CHANNELS 3 Zrotation Xrotation Yrotation
               JOINT RightFoot
               {
                    OFFSET 0.25355 -42.09240 -1.46059
                    CHANNELS 3 Zrotation Xrotation Yrotation
                    JOINT RightToes
                    {
                         OFFSET 0.04000 -4.41509 8.49910
                         CHANNELS 3 Zrotation Xrotation Yrotation
                         End Site
                         {
                              OFFSET -0.08000 -0.13745 9.77979
                         }
                    }
               }
          }
     }
}
MOTION
Frames: 8
Frame Time: 0.01667
44.52133 84.72467 -123.48073 5.37827 -3.21856 -20.91657 -4.20998 12.24413 7.60796 -0.00336 -0.00078 -0.00354 -22.80684 15.16793 36.16825 -1.67457 3.02312 5.85907 -109.85770 -16.49643 -97.03626 -31.66245 39.32341 -69.93913 32.35631 -5.74347 -40.60608 7.88648 5.78784 20.71924 60.76866 6.94472 95.63782 24.76701 20.93087 75.15554 -30.81993 3.45643 17.28370 20.20449 -38.90245 17.77338 -20.69679 54.87190 19.33675 0.47726 0.00704 0.00245 -6.46178 11.87271 14.36025 -33.89307 -13.07926 -5.64196 28.15383 50.52961 -59.04097 17.72218 -0.24320 0.07037 0.24585 7.55733 14.99888 
44.54819 83.76559 -124.15282 5.30047 -3.63298 -20.97623 -3.94808 12.85459 7.89291 0.00263 -0.00335 -0.00545 -22.86685 15.20996 35.59961 -1.54321 2.66246 4.96444 -109.78546 -16.90085 -95.96626 -38.53240 38.44840 -70.07240 30.09045 -7.57057 -47.50438 8.05842 5.34756 19.50271 59.35606 6.69597 94.64132 25.46142 19.17080 75.47621 -27.59774 -1.28022 26.88175 20.20356 -38.72236 17.77276 -20.39034 54.68489 19.19840 -0.85752 0.00500 0.00605 -5.13739 12.12437 14.09822 -33.80404 -13.40687 -6.46709 28.35837 51.69297 -60.63790 10.90208 -0.25108 0.00809 4.32427 7.33647 12.49190 
44.48755 82.71657 -124.88185 5.19587 -4.14161 -21.03415 -3.62178 13.43913 8.09738 0.00511 -0.00314 -0.00540 -22.90291 15.27036 34.98215 -1.35920 2.50334 4.26614 -109.81503 -17.01862 -94.70904 -42.27633 38.28791 -70.53442 33.08643 1.50268 -43.60548 8.26719 5.12708 18.48772 58.23137 7.01304 93.91956 26.39108 17.91309 75.72868 -28.14304 0.39024 22.09456 20.18519 -38.43673 17.70180 -19.79783 54.37403 18.84709 -2.32995 0.00263 0.00912 -3.86097 12.56755 13.82050 -33.77280 -13.77255 -7.17292 31.49275 54.23174 -63.96054 4.58794 -0.11108 -0.15876 10.65031 4.32456 15.96639 
44.27858 81.47951 -125.67622 5.06717 -4.77308 -21.08915 -3.21802 14.03701 8.19220 0.00875 -0.00347 -0.00789 -22.98425 15.35484 34.38016 -0.85553 2.56384 3.46895 -110.31766 -16.82729 -93.87271 -43.98099 38.07274 -70.34079 25.20008 -17.15616 -58.59688 8.79021 5.24464 17.37574 56.99392 8.51966 93.16348 31.34385 15.64989 75.93914 -22.10012 -14.67567 39.08402 20.25315 -38.11780 17.61979 -19.06127 54.17701 18.38590 -3.96344 0.00039 0.01091 -2.66119 13.06509 13.43163 -34.01619 -14.30008 -7.82057 37.07438 57.66655 -68.55153 -1.20142 -0.02661 -0.21244 16.62201 0.18686 15.93102 
43.91551 79.99683 -126.53792 4.92200 -5.53934 -21.16961 -2.77699 14.67403 8.21890 0.00803 -0.00158 -0.00634 -23.11561 15.47316 33.80799 -0.57339 2.81524 2.97511 -110.74886 -16.47077 -92.90964 -44.81493 38.35986 -70.61981 29.27647 -5.34337 -48.29478 9.09123 5.48983 16.66213 56.24028 10.24446 92.48814 38.51238 11.90215 76.18840 -20.86070 4.64015 29.81545 20.49353 -37.85742 17.59460 -18.29146 54.29264 17.90928 -5.77135 -0.00132 0.01137 -1.50100 13.56021 12.95334 -34.54925 -14.98191 -8.41085 42.36068 60.60614 -72.90798 -7.04011 0.01844 -0.15384 23.63172 -3.08706 17.39733 
43.44255 78.23621 -127.47742 4.79426 -6.44206 -21.30096 -2.35289 15.36320 8.20478 0.00844 0.00048 -0.00609 -23.32698 15.62867 33.30002 -0.46206 3.25673 2.65466 -111.19016 -16.32888 -91.81766 -45.38116 38.90049 -71.41651 26.89928 -12.36467 -57.46732 9.22375 5.88518 16.07533 55.83963 12.08156 91.95895 42.49504 10.28859 76.58816 -18.83302 1.09741 39.74939 20.94188 -37.76550 17.67546 -17.58529 54.88754 17.50350 -7.76062 -0.00269 0.01041 -0.33731 13.99119 12.40028 -35.33303 -15.81487 -8.94068 48.00879 63.36931 -77.52097 -12.87930 0.03424 -0.11837 30.94511 -5.90619 18.39861 
42.91353 76.19934 -128.48059 4.71376 -7.46776 -21.51134 -1.79939 15.78800 7.87129 0.00700 0.00718 -0.00298 -23.87962 16.03222 33.26335 -0.50222 4.19603 2.58678 -111.81409 -16.39977 -90.72604 -45.85776 39.65668 -72.37292 29.14839 -5.82653 -51.65408 9.07419 6.78852 15.88167 55.71373 13.90678 91.58572 44.56322 9.73484 76.61068 -18.73384 9.82027 34.12774 21.60986 -37.94335 17.89661 -17.02509 56.09013 17.24656 -9.93587 -0.00385 0.00788 0.93603 14.28940 11.82214 -36.34010 -16.85915 -9.42219 57.58979 66.93487 -84.20811 -17.94947 0.11178 -0.13416 38.40703 -10.39906 19.18287 
42.37501 73.88560 -129.53551 4.70133 -8.59019 -21.82914 -1.18339 16.03733 7.26860 0.00575 0.01318 0.00031 -24.76854 16.58503 33.67709 -0.70276 5.48952 2.73850 -112.57657 -16.75086 -89.63314 -46.40041 40.52364 -73.52716 27.71757 -10.10111 -57.36511 8.69015 8.06858 16.02784 55.77827 15.66932 91.32126 45.57245 9.76729 76.40620 -13.24288 -10.45774 49.79086 22.49773 -38.46658 18.28627 -16.68167 57.98142 17.20871 -12.30444 -0.00460 0.00374 2.43867 14.37319 11.24590 -37.50212 -18.11356 -9.86723 68.70653 69.75219 -92.71934 -23.32860 0.12915 -0.08917 58.47313 -21.21623 34.21971 
